<mxfile host="app.diagrams.net" modified="2023-12-05T06:59:20.156Z" agent="Mozilla/5.0 (X11; Linux x86_64) AppleWebKit/537.36 (KHTML, like Gecko) Chrome/119.0.0.0 Safari/537.36" version="22.1.5" etag="-a_JyaN_d3OuxwTnziA8" type="github">
  <diagram name="Halaman-1" id="kD2NhvlpmkbIbU3fxQ4j">
    <mxGraphModel>
      <root>
        <mxCell id="0" />
        <mxCell id="1" parent="0" />
      </root>
    </mxGraphModel>
  </diagram>
</mxfile>
